<svg xmlns="http://www.w3.org/2000/svg" xmlns:xlink="http://www.w3.org/1999/xlink" width="694" zoomAndPan="magnify" viewBox="0 0 520.5 104.999996" height="140" preserveAspectRatio="xMidYMid meet" version="1.0"><defs><clipPath id="27e7527c40"><path d="M 65.960938 72.757812 L 69.707031 72.757812 L 69.707031 76.503906 L 65.960938 76.503906 Z M 65.960938 72.757812 " clip-rule="nonzero"/></clipPath><clipPath id="e3749ede61"><path d="M 0.960938 0.757812 L 4.707031 0.757812 L 4.707031 4.503906 L 0.960938 4.503906 Z M 0.960938 0.757812 " clip-rule="nonzero"/></clipPath><clipPath id="f4bb8e435b"><rect x="0" width="5" y="0" height="5"/></clipPath><clipPath id="558da3df40"><path d="M 1.9375 64.28125 L 38.386719 64.28125 L 38.386719 101 L 1.9375 101 Z M 1.9375 64.28125 " clip-rule="nonzero"/></clipPath><clipPath id="3cf7304845"><path d="M 106.300781 16 L 140.433594 16 L 140.433594 43 L 106.300781 43 Z M 106.300781 16 " clip-rule="nonzero"/></clipPath><clipPath id="babcbc944c"><path d="M 43 2.34375 L 95 2.34375 L 95 104.949219 L 43 104.949219 Z M 43 2.34375 " clip-rule="nonzero"/></clipPath></defs><g clip-path="url(#27e7527c40)"><g transform="matrix(1, 0, 0, 1, 65, 72)"><g clip-path="url(#f4bb8e435b)"><g clip-path="url(#e3749ede61)"><path fill="#00c5ba" d="M 0.960938 0.757812 L 4.707031 0.757812 L 4.707031 4.503906 L 0.960938 4.503906 Z M 0.960938 0.757812 " fill-opacity="1" fill-rule="nonzero"/></g></g></g></g><g clip-path="url(#558da3df40)"><path fill="#345bff" d="M 38.179688 64.789062 L 1.984375 64.789062 L 38.179688 100.976562 Z M 38.179688 64.789062 " fill-opacity="1" fill-rule="nonzero"/></g><path fill="#345bff" d="M 124.847656 43.609375 L 102.046875 38.023438 L 78.480469 60.585938 L 98.839844 101.207031 Z M 124.847656 43.609375 " fill-opacity="1" fill-rule="nonzero"/><g clip-path="url(#3cf7304845)"><path fill="#345bff" d="M 123.304688 16.839844 L 106.429688 33.695312 L 141.425781 42.246094 Z M 123.304688 16.839844 " fill-opacity="1" fill-rule="nonzero"/></g><g clip-path="url(#babcbc944c)"><path fill="#345bff" d="M 93.996094 103.25 L 72.910156 61.210938 C 72.875 61.128906 72.816406 61.0625 72.792969 60.96875 L 43.414062 2.425781 L 43.414062 104.679688 L 94.722656 104.679688 Z M 93.996094 103.25 " fill-opacity="1" fill-rule="nonzero"/></g><path fill="#000000" d="M 218.664062 25.175781 L 239.058594 78.457031 L 259.222656 26.699219 L 269.003906 26.699219 L 239.058594 101.816406 L 218.664062 48.859375 L 198.273438 101.816406 L 168.285156 26.699219 L 178.066406 26.699219 L 198.273438 78.457031 Z M 218.664062 25.175781 " fill-opacity="1" fill-rule="nonzero"/><path fill="#000000" d="M 307.171875 77.207031 L 307.171875 77.992188 L 273.03125 77.992188 C 273.148438 82.332031 274.507812 85.886719 277.089844 88.660156 C 279.675781 91.429688 282.8125 92.8125 286.503906 92.8125 C 289.824219 92.8125 292.46875 92.050781 294.441406 90.503906 C 296.433594 88.9375 298.269531 86.800781 299.929688 84.089844 L 307.171875 88.242188 C 305.074219 92.121094 302.191406 95.144531 298.5 97.292969 C 294.832031 99.417969 290.804688 100.476562 286.410156 100.476562 C 279.976562 100.476562 274.703125 98.308594 270.585938 93.96875 C 266.457031 89.628906 264.402344 83.949219 264.402344 76.929688 C 264.402344 69.578125 266.339844 63.714844 270.21875 59.339844 C 274.117188 54.976562 279.457031 52.785156 286.226562 52.785156 C 292.742188 52.785156 297.867188 54.910156 301.589844 59.15625 C 305.304688 63.402344 307.171875 69.429688 307.171875 77.207031 Z M 298.59375 71.4375 C 298.0625 67.996094 296.722656 65.273438 294.578125 63.265625 C 292.457031 61.269531 289.640625 60.265625 286.132812 60.265625 C 282.871094 60.265625 280.066406 61.347656 277.738281 63.496094 C 275.429688 65.621094 274.011719 68.273438 273.492188 71.4375 Z M 298.59375 71.4375 " fill-opacity="1" fill-rule="nonzero"/><path fill="#000000" d="M 322.421875 15.800781 L 322.421875 61.601562 L 322.605469 61.601562 C 324.382812 58.925781 326.597656 56.789062 329.25 55.183594 C 331.890625 53.59375 334.878906 52.785156 338.199219 52.785156 C 342.039062 52.785156 345.582031 53.824219 348.8125 55.878906 C 352.0625 57.910156 354.625 60.714844 356.46875 64.28125 C 358.339844 67.859375 359.285156 71.839844 359.285156 76.238281 C 359.285156 83.257812 357.277344 89.0625 353.285156 93.644531 C 349.285156 98.203125 344.128906 100.476562 337.832031 100.476562 C 334.566406 100.476562 331.648438 99.707031 329.066406 98.171875 C 326.480469 96.601562 324.324219 94.546875 322.605469 91.984375 L 322.421875 91.984375 L 322.421875 98.953125 L 313.792969 98.953125 L 313.792969 15.800781 Z M 350.65625 76.515625 C 350.65625 71.621094 349.25 67.730469 346.457031 64.835938 C 343.691406 61.914062 340.207031 60.449219 336.03125 60.449219 C 331.996094 60.449219 328.625 62.007812 325.925781 65.113281 C 323.25 68.195312 321.914062 71.992188 321.914062 76.515625 C 321.914062 81.019531 323.214844 84.863281 325.835938 88.058594 C 328.476562 91.234375 331.902344 92.8125 336.125 92.8125 C 340.519531 92.8125 344.035156 91.3125 346.6875 88.289062 C 349.332031 85.242188 350.65625 81.316406 350.65625 76.515625 Z M 350.65625 76.515625 " fill-opacity="1" fill-rule="nonzero"/><path fill="#000000" d="M 400.835938 61.601562 L 401.019531 61.601562 L 401.019531 54.125 L 409.648438 54.125 L 409.648438 98.953125 L 401.019531 98.953125 L 401.019531 91.984375 L 400.835938 91.984375 C 399.105469 94.546875 396.960938 96.601562 394.375 98.171875 C 391.792969 99.707031 388.863281 100.476562 385.609375 100.476562 C 379.207031 100.476562 374.027344 98.171875 370.0625 93.554688 C 366.117188 88.914062 364.15625 83.140625 364.15625 76.238281 C 364.15625 71.839844 365.101562 67.824219 367.015625 64.1875 C 368.917969 60.5625 371.46875 57.757812 374.675781 55.785156 C 377.871094 53.789062 381.421875 52.785156 385.332031 52.785156 C 388.5625 52.785156 391.492188 53.59375 394.144531 55.183594 C 396.820312 56.789062 399.046875 58.925781 400.835938 61.601562 Z M 401.480469 76.515625 C 401.480469 71.691406 400.109375 67.8125 397.375 64.882812 C 394.628906 61.925781 391.121094 60.449219 386.855469 60.449219 C 382.816406 60.449219 379.472656 62.019531 376.796875 65.160156 C 374.121094 68.273438 372.78125 72.0625 372.78125 76.515625 C 372.78125 81.132812 374.121094 85.011719 376.796875 88.152344 C 379.472656 91.265625 382.851562 92.8125 386.949219 92.8125 C 391.285156 92.8125 394.789062 91.3125 397.46875 88.289062 C 400.144531 85.242188 401.480469 81.316406 401.480469 76.515625 Z M 401.480469 76.515625 " fill-opacity="1" fill-rule="nonzero"/><path fill="#000000" d="M 445.707031 60.632812 L 438.738281 64.375 C 438.210938 63.300781 437.460938 62.375 436.480469 61.601562 C 435.488281 60.839844 434.320312 60.449219 432.972656 60.449219 C 431.773438 60.449219 430.6875 60.886719 429.742188 61.742188 C 428.785156 62.605469 428.3125 63.632812 428.3125 64.835938 C 428.3125 66.195312 428.9375 67.398438 430.203125 68.4375 C 431.496094 69.488281 433.480469 70.59375 436.15625 71.761719 L 438.738281 72.914062 C 442.246094 74.425781 444.839844 76.179688 446.539062 78.179688 C 448.222656 80.152344 449.074219 82.644531 449.074219 85.65625 C 449.074219 89.789062 447.5625 93.300781 444.554688 96.183594 C 441.566406 99.046875 437.933594 100.476562 433.664062 100.476562 C 430.214844 100.476562 427.042969 99.554688 424.160156 97.707031 C 421.300781 95.863281 419.292969 93.4375 418.164062 90.414062 L 425.5 87.089844 C 426.386719 88.75 427.449219 90.125 428.683594 91.199219 C 429.9375 92.285156 431.601562 92.8125 433.664062 92.8125 C 435.511719 92.8125 437.089844 92.25 438.417969 91.105469 C 439.765625 89.976562 440.445312 88.429688 440.445312 86.488281 C 440.445312 85.230469 440.101562 84.214844 439.433594 83.441406 C 438.785156 82.679688 437.460938 81.757812 435.464844 80.671875 L 428.867188 77.117188 C 426.007812 75.640625 423.847656 74.070312 422.40625 72.40625 C 420.953125 70.746094 420.238281 68.550781 420.238281 65.804688 C 420.238281 62.296875 421.542969 59.25 424.160156 56.664062 C 426.765625 54.078125 429.882812 52.785156 433.480469 52.785156 C 436.214844 52.785156 438.625 53.5 440.722656 54.910156 C 442.847656 56.292969 444.507812 58.210938 445.707031 60.632812 Z M 445.707031 60.632812 " fill-opacity="1" fill-rule="nonzero"/><path fill="#000000" d="M 496.71875 77.207031 L 496.71875 77.992188 L 462.578125 77.992188 C 462.695312 82.332031 464.054688 85.886719 466.636719 88.660156 C 469.222656 91.429688 472.359375 92.8125 476.050781 92.8125 C 479.371094 92.8125 482.015625 92.050781 483.988281 90.503906 C 485.980469 88.9375 487.816406 86.800781 489.476562 84.089844 L 496.71875 88.242188 C 494.621094 92.121094 491.738281 95.144531 488.046875 97.292969 C 484.378906 99.417969 480.351562 100.476562 475.957031 100.476562 C 469.523438 100.476562 464.25 98.308594 460.132812 93.96875 C 456.003906 89.628906 453.949219 83.949219 453.949219 76.929688 C 453.949219 69.578125 455.886719 63.714844 459.765625 59.339844 C 463.664062 54.976562 469.003906 52.785156 475.773438 52.785156 C 482.289062 52.785156 487.414062 54.910156 491.136719 59.15625 C 494.851562 63.402344 496.71875 69.429688 496.71875 77.207031 Z M 488.140625 71.4375 C 487.609375 67.996094 486.269531 65.273438 484.125 63.265625 C 482.003906 61.269531 479.1875 60.265625 475.683594 60.265625 C 472.417969 60.265625 469.613281 61.347656 467.285156 63.496094 C 464.976562 65.621094 463.558594 68.273438 463.039062 71.4375 Z M 488.140625 71.4375 " fill-opacity="1" fill-rule="nonzero"/><path fill="#345bff" d="M 517.511719 94.9375 C 517.511719 96.484375 516.96875 97.789062 515.898438 98.863281 C 514.8125 99.9375 513.511719 100.476562 511.976562 100.476562 C 510.429688 100.476562 509.125 99.9375 508.054688 98.863281 C 506.96875 97.789062 506.4375 96.484375 506.4375 94.9375 C 506.4375 93.460938 506.96875 92.167969 508.054688 91.058594 C 509.125 89.953125 510.429688 89.398438 511.976562 89.398438 C 513.511719 89.398438 514.8125 89.953125 515.898438 91.058594 C 516.96875 92.167969 517.511719 93.460938 517.511719 94.9375 Z M 517.511719 94.9375 " fill-opacity="1" fill-rule="nonzero"/></svg>