<svg xmlns="http://www.w3.org/2000/svg" xmlns:xlink="http://www.w3.org/1999/xlink" width="500" zoomAndPan="magnify" viewBox="0 0 375 275.25" height="367" preserveAspectRatio="xMidYMid meet" version="1.0"><defs><clipPath id="d9fedb7529"><path d="M 0.507812 167 L 98 167 L 98 265 L 0.507812 265 Z M 0.507812 167 " clip-rule="nonzero"/></clipPath><clipPath id="6c1fa85c75"><path d="M 280 38 L 374.488281 38 L 374.488281 107 L 280 107 Z M 280 38 " clip-rule="nonzero"/></clipPath><clipPath id="b6b5e66350"><path d="M 111 0 L 250 0 L 250 274.503906 L 111 274.503906 Z M 111 0 " clip-rule="nonzero"/></clipPath></defs><g clip-path="url(#d9fedb7529)"><path fill="#345bff" d="M 97.714844 167.375 L 0.621094 167.375 L 97.714844 264.394531 Z M 97.714844 167.375 " fill-opacity="1" fill-rule="nonzero"/></g><path fill="#345bff" d="M 330.203125 110.605469 L 269.039062 95.636719 L 205.832031 156.128906 L 260.441406 265.011719 Z M 330.203125 110.605469 " fill-opacity="1" fill-rule="nonzero"/><g clip-path="url(#6c1fa85c75)"><path fill="#345bff" d="M 326.042969 38.851562 L 280.777344 84.039062 L 374.660156 106.96875 Z M 326.042969 38.851562 " fill-opacity="1" fill-rule="nonzero"/></g><g clip-path="url(#b6b5e66350)"><path fill="#345bff" d="M 247.441406 270.464844 L 190.875 157.789062 C 190.769531 157.578125 190.640625 157.386719 190.566406 157.160156 L 111.777344 0.210938 L 111.777344 274.324219 L 249.382812 274.324219 Z M 247.441406 270.464844 " fill-opacity="1" fill-rule="nonzero"/></g></svg>